<svg width="257" height="56" viewBox="0 0 257 56" fill="none" xmlns="http://www.w3.org/2000/svg">
<path d="M0 28C0 14.8007 0 8.20101 4.10051 4.10051C8.20101 0 14.8007 0 28 0V0C41.1993 0 47.799 0 51.8995 4.10051C56 8.20101 56 14.8007 56 28V28C56 41.1993 56 47.799 51.8995 51.8995C47.799 56 41.1993 56 28 56V56C14.8007 56 8.20101 56 4.10051 51.8995C0 47.799 0 41.1993 0 28V28Z" fill="#A29BFE"/>
<path d="M26.8359 13.0113H29.6199L19.0599 43.1553H16.2759L26.8359 13.0113ZM28.9761 40.1473C28.3788 40.1473 27.8668 39.9447 27.4401 39.5393C27.0135 39.1127 26.8001 38.5793 26.8001 37.9393C26.8001 37.3207 27.0135 36.8087 27.4401 36.4033C27.8668 35.9767 28.3788 35.7633 28.9761 35.7633C29.5735 35.7633 30.0748 35.966 30.4801 36.3713C30.8855 36.7767 31.0881 37.2993 31.0881 37.9393C31.0881 38.5793 30.8748 39.1127 30.4481 39.5393C30.0428 39.9447 29.5521 40.1473 28.9761 40.1473ZM36.2261 40.1473C35.6288 40.1473 35.1168 39.9447 34.6901 39.5393C34.2635 39.1127 34.0501 38.5793 34.0501 37.9393C34.0501 37.3207 34.2635 36.8087 34.6901 36.4033C35.1168 35.9767 35.6288 35.7633 36.2261 35.7633C36.8235 35.7633 37.3248 35.966 37.7301 36.3713C38.1355 36.7767 38.3381 37.2993 38.3381 37.9393C38.3381 38.5793 38.1248 39.1127 37.6981 39.5393C37.2928 39.9447 36.8021 40.1473 36.2261 40.1473Z" fill="white"/>
<path d="M83.7462 40.1826C81.4672 40.1826 79.4053 39.6834 77.5604 38.685C75.7372 37.6648 74.3047 36.2757 73.2629 34.5177C72.2211 32.7379 71.7002 30.7411 71.7002 28.5272C71.7002 26.3133 72.2211 24.3274 73.2629 22.5693C74.3047 20.7895 75.7481 19.4004 77.593 18.402C79.4378 17.3819 81.4998 16.8718 83.7788 16.8718C85.5585 16.8718 87.1864 17.1757 88.6623 17.7834C90.1382 18.3695 91.3971 19.2485 92.4389 20.4205L90.3227 22.4716C88.608 20.6702 86.4701 19.7694 83.909 19.7694C82.216 19.7694 80.6859 20.1492 79.3185 20.9089C77.9511 21.6686 76.8767 22.7212 76.0953 24.0669C75.3357 25.3909 74.9558 26.8777 74.9558 28.5272C74.9558 30.1768 75.3357 31.6744 76.0953 33.0201C76.8767 34.344 77.9511 35.3859 79.3185 36.1455C80.6859 36.9052 82.216 37.285 83.909 37.285C86.4484 37.285 88.5863 36.3734 90.3227 34.5502L92.4389 36.6013C91.3971 37.7734 90.1274 38.6633 88.6297 39.271C87.1538 39.8787 85.526 40.1826 83.7462 40.1826ZM105.841 22.5042C108.033 22.5042 109.77 23.1445 111.05 24.425C112.353 25.6839 113.004 27.5397 113.004 29.9923V39.9221H109.878V30.3504C109.878 28.6791 109.477 27.4203 108.674 26.5738C107.871 25.7273 106.72 25.3041 105.223 25.3041C103.53 25.3041 102.195 25.8033 101.218 26.8017C100.241 27.7784 99.753 29.1892 99.753 31.0341V39.9221H96.6275V15.7649H99.753V25.1087C100.404 24.284 101.251 23.6437 102.292 23.1879C103.356 22.7321 104.539 22.5042 105.841 22.5042ZM125.071 22.5042C127.459 22.5042 129.282 23.0902 130.541 24.2623C131.821 25.4343 132.462 27.1815 132.462 29.5039V39.9221H129.499V37.6431C128.978 38.4462 128.229 39.0648 127.253 39.4989C126.298 39.9113 125.158 40.1175 123.834 40.1175C121.902 40.1175 120.351 39.6508 119.179 38.7175C118.028 37.7842 117.453 36.5579 117.453 35.0386C117.453 33.5193 118.006 32.3038 119.113 31.3922C120.22 30.4589 121.978 29.9923 124.388 29.9923H129.336V29.3737C129.336 28.028 128.946 26.997 128.164 26.2808C127.383 25.5645 126.233 25.2064 124.713 25.2064C123.693 25.2064 122.695 25.38 121.718 25.7273C120.741 26.0529 119.916 26.4978 119.244 27.0622L117.941 24.7181C118.831 24.0018 119.895 23.4592 121.132 23.0902C122.369 22.6995 123.682 22.5042 125.071 22.5042ZM124.355 37.7083C125.549 37.7083 126.58 37.4478 127.448 36.9269C128.316 36.3843 128.946 35.6246 129.336 34.6479V32.2387H124.518C121.87 32.2387 120.546 33.1286 120.546 34.9084C120.546 35.7765 120.882 36.4602 121.555 36.9594C122.228 37.4586 123.161 37.7083 124.355 37.7083ZM147.948 38.9129C147.492 39.3035 146.927 39.6074 146.255 39.8244C145.582 40.0198 144.887 40.1175 144.171 40.1175C142.435 40.1175 141.089 39.6508 140.134 38.7175C139.179 37.7842 138.701 36.4494 138.701 34.713V25.239H135.771V22.667H138.701V18.8904H141.827V22.667H146.776V25.239H141.827V34.5828C141.827 35.5161 142.055 36.2323 142.511 36.7315C142.988 37.2308 143.661 37.4804 144.529 37.4804C145.484 37.4804 146.298 37.209 146.971 36.6664L147.948 38.9129ZM161.015 38.9129C160.559 39.3035 159.995 39.6074 159.322 39.8244C158.649 40.0198 157.955 40.1175 157.238 40.1175C155.502 40.1175 154.156 39.6508 153.201 38.7175C152.246 37.7842 151.769 36.4494 151.769 34.713V25.239H148.839V22.667H151.769V18.8904H154.894V22.667H159.843V25.239H154.894V34.5828C154.894 35.5161 155.122 36.2323 155.578 36.7315C156.055 37.2308 156.728 37.4804 157.596 37.4804C158.551 37.4804 159.365 37.209 160.038 36.6664L161.015 38.9129ZM179.816 31.3922C179.816 31.631 179.794 31.9457 179.751 32.3364H165.751C165.947 33.8557 166.609 35.082 167.737 36.0153C168.888 36.9269 170.309 37.3827 172.002 37.3827C174.064 37.3827 175.725 36.6881 176.984 35.299L178.709 37.3176C177.928 38.2292 176.951 38.9237 175.779 39.4012C174.629 39.8787 173.337 40.1175 171.905 40.1175C170.081 40.1175 168.464 39.7485 167.054 39.0105C165.643 38.2509 164.547 37.1982 163.765 35.8525C163.006 34.5068 162.626 32.9875 162.626 31.2945C162.626 29.6233 162.995 28.1148 163.733 26.7691C164.493 25.4235 165.523 24.3816 166.826 23.6437C168.15 22.884 169.636 22.5042 171.286 22.5042C172.936 22.5042 174.401 22.884 175.681 23.6437C176.984 24.3816 177.993 25.4235 178.709 26.7691C179.447 28.1148 179.816 29.6559 179.816 31.3922ZM171.286 25.1413C169.788 25.1413 168.53 25.5971 167.509 26.5087C166.511 27.4203 165.925 28.614 165.751 30.0899H176.821C176.647 28.6357 176.05 27.4528 175.03 26.5412C174.032 25.6079 172.784 25.1413 171.286 25.1413ZM187.151 25.5645C187.694 24.5661 188.497 23.8065 189.56 23.2856C190.624 22.7646 191.915 22.5042 193.435 22.5042V25.532C193.261 25.5103 193.022 25.4994 192.718 25.4994C191.025 25.4994 189.691 26.0095 188.714 27.0296C187.759 28.028 187.281 29.4605 187.281 31.3271V39.9221H184.156V22.667H187.151V25.5645ZM212.918 28.104C214.242 28.473 215.284 29.1458 216.043 30.1225C216.803 31.0775 217.183 32.293 217.183 33.7689C217.183 35.744 216.434 37.2633 214.936 38.3268C213.461 39.3904 211.301 39.9221 208.458 39.9221H197.584V17.1323H207.806C210.411 17.1323 212.419 17.6532 213.829 18.695C215.262 19.7369 215.978 21.1802 215.978 23.0251C215.978 24.2189 215.696 25.2498 215.132 26.118C214.589 26.9862 213.851 27.6482 212.918 28.104ZM200.839 19.7694V27.0622H207.513C209.185 27.0622 210.465 26.7583 211.355 26.1506C212.267 25.5211 212.723 24.6095 212.723 23.4158C212.723 22.222 212.267 21.3213 211.355 20.7136C210.465 20.0841 209.185 19.7694 207.513 19.7694H200.839ZM208.327 37.285C210.172 37.285 211.561 36.9811 212.495 36.3734C213.428 35.7657 213.895 34.8107 213.895 33.5084C213.895 30.969 212.039 29.6993 208.327 29.6993H200.839V37.285H208.327ZM229.158 40.1175C227.444 40.1175 225.903 39.7376 224.535 38.978C223.168 38.2183 222.094 37.1765 221.312 35.8525C220.553 34.5068 220.173 32.9875 220.173 31.2945C220.173 29.6016 220.553 28.0931 221.312 26.7691C222.094 25.4235 223.168 24.3816 224.535 23.6437C225.903 22.884 227.444 22.5042 229.158 22.5042C230.873 22.5042 232.403 22.884 233.749 23.6437C235.116 24.3816 236.18 25.4235 236.94 26.7691C237.721 28.0931 238.112 29.6016 238.112 31.2945C238.112 32.9875 237.721 34.5068 236.94 35.8525C236.18 37.1765 235.116 38.2183 233.749 38.978C232.403 39.7376 230.873 40.1175 229.158 40.1175ZM229.158 37.3827C230.265 37.3827 231.253 37.1331 232.121 36.6339C233.011 36.113 233.706 35.3967 234.205 34.4851C234.704 33.5518 234.954 32.4883 234.954 31.2945C234.954 30.1008 234.704 29.0481 234.205 28.1365C233.706 27.2032 233.011 26.487 232.121 25.9878C231.253 25.4886 230.265 25.239 229.158 25.239C228.052 25.239 227.053 25.4886 226.163 25.9878C225.295 26.487 224.6 27.2032 224.08 28.1365C223.58 29.0481 223.331 30.1008 223.331 31.2945C223.331 32.4883 223.58 33.5518 224.08 34.4851C224.6 35.3967 225.295 36.113 226.163 36.6339C227.053 37.1331 228.052 37.3827 229.158 37.3827ZM252.866 39.9221L247.885 33.3131L242.838 39.9221H239.355L246.159 31.0992L239.68 22.667H243.164L247.917 28.8853L252.638 22.667H256.057L249.545 31.0992L256.415 39.9221H252.866Z" fill="#2D3436"/>
</svg>
