<svg width="56" height="56" viewBox="0 0 56 56" fill="none" xmlns="http://www.w3.org/2000/svg">
<path d="M0 28C0 14.8007 0 8.20101 4.10051 4.10051C8.20101 0 14.8007 0 28 0V0C41.1993 0 47.799 0 51.8995 4.10051C56 8.20101 56 14.8007 56 28V28C56 41.1993 56 47.799 51.8995 51.8995C47.799 56 41.1993 56 28 56V56C14.8007 56 8.20101 56 4.10051 51.8995C0 47.799 0 41.1993 0 28V28Z" fill="#A29BFE"/>
<path d="M26.8359 13.0113H29.6199L19.0599 43.1553H16.2759L26.8359 13.0113ZM28.9761 40.1473C28.3788 40.1473 27.8668 39.9447 27.4401 39.5393C27.0135 39.1127 26.8001 38.5793 26.8001 37.9393C26.8001 37.3207 27.0135 36.8087 27.4401 36.4033C27.8668 35.9767 28.3788 35.7633 28.9761 35.7633C29.5735 35.7633 30.0748 35.966 30.4801 36.3713C30.8855 36.7767 31.0881 37.2993 31.0881 37.9393C31.0881 38.5793 30.8748 39.1127 30.4481 39.5393C30.0428 39.9447 29.5521 40.1473 28.9761 40.1473ZM36.2261 40.1473C35.6288 40.1473 35.1168 39.9447 34.6901 39.5393C34.2635 39.1127 34.0501 38.5793 34.0501 37.9393C34.0501 37.3207 34.2635 36.8087 34.6901 36.4033C35.1168 35.9767 35.6288 35.7633 36.2261 35.7633C36.8235 35.7633 37.3248 35.966 37.7301 36.3713C38.1355 36.7767 38.3381 37.2993 38.3381 37.9393C38.3381 38.5793 38.1248 39.1127 37.6981 39.5393C37.2928 39.9447 36.8021 40.1473 36.2261 40.1473Z" fill="white"/>
</svg>
